#tb 0: 1/1000
0,          0,          0,        0,    59400, d4b3578d800c747bcabaa484a140ffb0
0,         33,         33,        0,    59400, a40f6f8c384c5dc3d5546d960bb6d9e5
0,         66,         66,        0,    59400, e270ae8754d9906dd88b1c7d05280801
0,        100,        100,        0,    59400, bde7fde5012840c5e188f3b29f4f0003
0,        133,        133,        0,    59400, 8f8510c1130615b64fb8469af66ff678
0,        166,        166,        0,    59400, 79b9d4e0c64f82a6e9540394222a593d
0,        200,        200,        0,    59400, 34852ac9ca5c6bfa51736296784343c7
0,        233,        233,        0,    59400, b055218509dbed644113642f8f0ac8a8
0,        266,        266,        0,    59400, 1628866b436f1c4b892474025226e545
0,        300,        300,        0,    59400, 3fdec760c04e30c90e74afb38dbf757c
